<svg id="Capa_1" data-name="Capa 1" xmlns="http://www.w3.org/2000/svg" viewBox="0 0 1073.54 191.62"><defs><style>.cls-1,.cls-2{fill:#f55;}.cls-2{font-size:163.5px;font-family:Nickainley-Normal, Nickainley;}</style></defs><title>logo_horizontal_red</title><path class="cls-1" d="M171.54,127.11a16.17,16.17,0,0,1,16,8.74c3.73,7.33,11.69,12.24,26.35,12.24h48a3.4,3.4,0,0,0,3.41-3.42h0a3.6,3.6,0,0,0-3.62-3.6H217.16a3.63,3.63,0,0,1,0-7.26h44.46a3.61,3.61,0,0,0,3.62-3.61v0a3.61,3.61,0,0,0-3.62-3.61H217.16a3.63,3.63,0,0,1,0-7.26h44.46a3.6,3.6,0,0,0,3.62-3.61v0a3.6,3.6,0,0,0-3.62-3.6H217.16a3.63,3.63,0,1,1,0-7.26h44.46a3.61,3.61,0,0,0,3.62-3.61,3.42,3.42,0,0,0-3.41-3.42h-48c-14.66,0-22.62,4.91-26.35,12.24a16.14,16.14,0,0,1-16,8.74m93.7,25.94" transform="translate(-45.45 -12.61)"/><rect class="cls-1" x="154.92" y="112.36" width="18.6" height="21.13" rx="1.55" ry="1.55" transform="translate(241.68 -53.9) rotate(90)"/><path class="cls-1" d="M104.61,132.25a266.79,266.79,0,0,1,55.8-3.65V117.24a266.79,266.79,0,0,1-55.8-3.65c-10.24-1.78-20.44-4.17-31-4.19s-22,2.92-26.86,9.25c0,0-2.89,5.7,0,8.54,6,5.88,16.28,9.28,26.86,9.25S94.37,134,104.61,132.25Zm-41.39-9.33c0-2.8,6.43-5.07,14.36-5.07S92,120.12,92,122.92,85.52,128,77.58,128,63.22,125.72,63.22,122.92Z" transform="translate(-45.45 -12.61)"/><path class="cls-1" d="M148.41,58.14a2.48,2.48,0,0,0-2.48-2.47h-96A4.34,4.34,0,0,0,45.59,60,4.66,4.66,0,0,0,49,64.49l52.42,15a53.42,53.42,0,0,0,45-7.35,4.7,4.7,0,0,0,2-3.87m0-10.17" transform="translate(-45.45 -12.61)"/><rect class="cls-1" x="143.91" y="53.65" width="18.59" height="21.13" rx="1.55" ry="1.55" transform="translate(43.53 204.82) rotate(-90)"/><path class="cls-1" d="M205.94,54.89a267.33,267.33,0,0,1-55.79,3.65V69.9a266.65,266.65,0,0,1,55.79,3.65c10.25,1.78,20.44,4.17,31,4.19s22-2.92,26.86-9.25c0,0,2.89-5.7,0-8.54-6-5.88-16.28-9.28-26.86-9.25S216.19,53.11,205.94,54.89Zm41.4,9.33c0,2.8-6.43,5.07-14.37,5.07S218.61,67,218.61,64.22,225,59.15,233,59.15,247.34,61.42,247.34,64.22Z" transform="translate(-45.45 -12.61)"/><text class="cls-2" transform="translate(266.52 145.35)">Smart Waiter</text></svg>