<svg id="Capa_1" data-name="Capa 1" xmlns="http://www.w3.org/2000/svg" viewBox="0 0 1306.73 581.02"><defs><style>.cls-1{fill:#fff;}</style></defs><title>logo</title><path class="cls-1" d="M660.62,189.15a26.17,26.17,0,0,1,25.83,14.15c6,11.88,18.92,19.83,42.67,19.83H806.8a5.54,5.54,0,0,0,5.53-5.54h0a5.84,5.84,0,0,0-5.86-5.84h-72a5.88,5.88,0,1,1,0-11.75h72a5.85,5.85,0,0,0,5.86-5.85v-.06a5.85,5.85,0,0,0-5.86-5.85h-72a5.88,5.88,0,1,1,0-11.75h72a5.84,5.84,0,0,0,5.86-5.84v-.07a5.85,5.85,0,0,0-5.86-5.84h-72a5.88,5.88,0,1,1,0-11.75h72a5.85,5.85,0,0,0,5.86-5.84,5.55,5.55,0,0,0-5.53-5.55H729.12c-23.75,0-36.64,8-42.67,19.84a26.13,26.13,0,0,1-25.83,14.14m151.71,42" transform="translate(-26.28 -65.42)"/><rect class="cls-1" x="633.7" y="165.26" width="30.11" height="34.21" rx="1.55" ry="1.55" transform="translate(804.84 -531.81) rotate(90)"/><path class="cls-1" d="M552.24,197.48a432.52,432.52,0,0,1,90.35-5.92V173.17a433.2,433.2,0,0,1-90.35-5.91c-16.58-2.88-33.09-6.76-50.22-6.79s-35.58,4.73-43.48,15c0,0-4.69,9.24,0,13.83,9.69,9.53,26.36,15,43.48,15S535.66,200.35,552.24,197.48Zm-67-15.11c0-4.54,10.42-8.22,23.27-8.22s23.26,3.68,23.26,8.22-10.41,8.21-23.26,8.21S485.21,186.9,485.21,182.37Z" transform="translate(-26.28 -65.42)"/><path class="cls-1" d="M623.15,77.48a4,4,0,0,0-4-4H463.7a7,7,0,0,0-7,7,7.55,7.55,0,0,0,5.47,7.25L547,112.1a86.51,86.51,0,0,0,72.85-11.88,7.65,7.65,0,0,0,3.29-6.28m0-16.46" transform="translate(-26.28 -65.42)"/><rect class="cls-1" x="615.87" y="70.21" width="30.11" height="34.21" rx="1.55" ry="1.55" transform="translate(517.32 652.82) rotate(-90)"/><path class="cls-1" d="M716.32,72.21A433.2,433.2,0,0,1,626,78.13V96.51a433.2,433.2,0,0,1,90.35,5.92c16.58,2.87,33.09,6.75,50.22,6.79s35.58-4.73,43.49-15c0,0,4.68-9.24,0-13.84-9.7-9.52-26.37-15-43.49-15S732.9,69.33,716.32,72.21Zm67,15.11c0,4.53-10.42,8.21-23.27,8.21s-23.26-3.68-23.26-8.21,10.41-8.21,23.26-8.21S783.35,82.78,783.35,87.32Z" transform="translate(-26.28 -65.42)"/><path class="cls-1" d="M129,346.2c2.64,9.8,7.14,19.86,11.91,30.18,8.21,18,16.68,36.8,16.68,57.19,0,41.56-31,69.63-70.95,69.63-35.21,0-60.36-24.63-60.36-56.92,0-31.51,24.88-57.72,53.47-57.72,22,0,37.07,17.74,37.07,38.13a18.23,18.23,0,0,1-.53,4.76,5.45,5.45,0,0,1-5,4,5.64,5.64,0,0,1-5.83-6.09C107,414,96.17,399.68,79.75,399.68c-23.29,0-42.35,22.24-42.35,47.39,0,26.47,21.7,45,50,45,34.95,0,59-25.42,59-58.51,0-18.27-7.94-35.74-15.62-52.68-5-11.12-9.8-22-12.71-32.57-4,.27-8.21.53-13,.53-34.95,0-60.63-15.35-75.72-46.33a7.94,7.94,0,0,1-.53-2.65c0-3.7,3.45-5.29,5.56-5.29a5.44,5.44,0,0,1,5,3.18c13,27,34.95,40,65.13,40,4.24,0,7.94-.26,11.38-.53a61.27,61.27,0,0,1-.53-6.88c0-18.53,10.86-38.39,28.86-38.39,11.12,0,16.94,8.74,16.41,19.59C160,327.14,148.59,340.12,129,346.2Zm14.29-43.15c-10.85,0-16.41,15.09-16.41,27a32.49,32.49,0,0,0,.26,5c22-8.2,22.51-19.32,22.51-23.56C149.65,306,147.53,303.05,143.29,303.05Z" transform="translate(-26.28 -65.42)"/><path class="cls-1" d="M350.31,435.16C340.52,457.39,326,490,302.4,490c-13,0-19.33-9.27-19.33-22.24,0-24.09,20.65-56.92,20.65-78.63,0-7.68-3.18-13.76-13.77-13.76-15.35,0-36,34.68-43.68,56.12-.53,1.59-18.27,53.48-18,52.95a5.4,5.4,0,0,1-5.3,3.7,5.56,5.56,0,0,1-5.29-7.41c.26-.79,17.74-52.68,18-53.21,5.56-16.15,9.53-28.06,9.53-37.33,0-9.79-3.7-14.82-13.24-14.82-7.41,0-15.35,8.47-23,19.32-4.76,7.15-20.65,36.27-22.24,40.51l-18,51.09a5.76,5.76,0,0,1-7.15,3.71,5.61,5.61,0,0,1-3.44-7.15c13.5-38.12,27.27-76.25,40.77-114.37a5.4,5.4,0,0,1,5.3-3.7,5.56,5.56,0,0,1,5.29,7.41,57.45,57.45,0,0,0-2.65,7.15c7.68-9,16.15-15.09,25.15-15.09,15.89,0,24.36,10.32,24.36,24.35,7.68-12.18,21.18-24.35,33.62-24.35,19.06,0,24.89,10.85,24.89,24.88,0,25.42-20.39,55.86-20.39,78.63,0,7.68,2.39,11.12,7.95,11.12,13,0,23.56-15.62,37.85-49a5.8,5.8,0,0,1,5.3-3.44,6,6,0,0,1,5.56,5.56A13.22,13.22,0,0,1,350.31,435.16Z" transform="translate(-26.28 -65.42)"/><path class="cls-1" d="M457.79,432a7.57,7.57,0,0,1-.53,2.38l-.26.8c-10.06,22.23-24.36,54.8-48.18,54.8-12.71,0-19.06-9.27-19.06-22.24C379.17,482.54,368.05,490,356.66,490,341.84,490,335,477.25,335,461.37c0-34.68,26.74-96.63,58.51-96.63,11.12,0,19.33,4.5,24.09,14,1.59-4.5,3.18-8.47,4.5-11.92a5.55,5.55,0,0,1,5.3-3.44,5.39,5.39,0,0,1,5,7.42L419.14,406.3c-9.53,26.74-18.26,49.77-18.26,61.42,0,7.94,2.38,11.12,7.94,11.12,16.41,0,29.12-28.59,37.86-48.18l.26-.8a5.7,5.7,0,0,1,5-3.44,7.85,7.85,0,0,1,2.38.53A5.7,5.7,0,0,1,457.79,432Zm-53.74-19.86,6.36-16.94c-.53-12.18-7.42-19.33-17-19.33-24.35.53-46.86,57.45-47.39,83.66,0,11.65,2.39,19.33,10.33,19.33C377.84,478.84,393.46,439.13,404.05,412.12Z" transform="translate(-26.28 -65.42)"/><path class="cls-1" d="M555.22,432a7.85,7.85,0,0,1-.53,2.38c-17.21,39.45-30.45,55.6-48.45,55.6H506c-12.45,0-18.8-9.27-18.8-22.24a61.74,61.74,0,0,1,2.65-17.21C491.94,442,503.59,406.83,506,401c-20.12-6.62-23-7.68-28.86-10.59-1.06,3.17-2.91,6.88-24.09,53.21a5.36,5.36,0,0,1-4.77,3.18,8,8,0,0,1-2.65-.53,5.94,5.94,0,0,1-3.17-5,7.63,7.63,0,0,1,.53-2.39l21.18-46.06,3.17-7.94c-7.94-5.56-13.5-12.45-13.5-22.24,0-10.86,7.68-17.21,16.15-17.21,9.53,0,15.36,6.88,15.36,17.47,0,4.24-1.06,6.62-4.24,16.95,7.41,3.7,16.41,6.62,24.09,9.26,3.71,1.06,7.15,2.12,10.06,3.18s4.24,4.5,3.18,7.68c-3.44,8.73-16.15,46.59-17.74,53.21a63.51,63.51,0,0,0-2.38,14.56c0,6.62,2.12,11.12,7.94,11.12,13,0,23-14.83,38.12-49a5.7,5.7,0,0,1,5-3.44,7.92,7.92,0,0,1,2.39.53A5.72,5.72,0,0,1,555.22,432ZM470,356.53c-3.44,0-5,2.12-5,5,0,4.23,2.38,9,6.35,12.18,1.33-3.71,2.92-8.47,2.92-11.12C474.21,358.12,472.09,356.53,470,356.53Z" transform="translate(-26.28 -65.42)"/><path class="cls-1" d="M610.28,432a7.57,7.57,0,0,1-.53,2.38c-15.35,33.1-30.18,55.6-54.53,55.6-12.71,0-19.6-9.53-19.6-22.24,0-9.8,6.62-32.83,15.1-54.54l13.5-37.85H547.54a5.43,5.43,0,0,1-5.56-5.56,5.59,5.59,0,0,1,5.56-5.56h20.38c.53-1.06,13.5-38.39,13.77-39.45a5.4,5.4,0,0,1,5.29-3.71,5.57,5.57,0,0,1,5.3,7.42c.79-1.59-10.59,30.71-12.44,35.74h17.73a5.59,5.59,0,0,1,5.56,5.56,5.43,5.43,0,0,1-5.56,5.56h-21.7c-1.59,5-6.09,17.2-14.83,41.82-10.85,30.71-14.3,42.89-14.3,50.57,0,7.15,3.18,11.12,8.48,11.12,19.06,0,31.76-22,44.21-49.24a6.33,6.33,0,0,1,5.29-3.18,7.79,7.79,0,0,1,2.38.53A5.92,5.92,0,0,1,610.28,432Z" transform="translate(-26.28 -65.42)"/><path class="cls-1" d="M815.45,284c9.26,0,15.62,5.82,15.62,14.3,0,12.44-19.06,22.5-37.86,27.53C778.12,363.68,753,450,753,465.07c0,15.89,5.82,23.56,18.27,24.09,15.35,0,31.5-25.15,45.53-55.33,7.94-16.68,38.92-102.45,41.57-114.63a5.66,5.66,0,1,1,10.85,3.18c-20.91,62.74-38.92,115.16-38.92,141.37,0,14.82,4.24,24.88,16.42,24.88,27.8,0,43.95-50.83,59.83-101.39,16.94-52.95,33.36-105.63,67.24-105.63a5.65,5.65,0,0,1,5.83,5.56,5.43,5.43,0,0,1-5.56,5.56c-25.68-.27-41,48.44-56.92,97.95C899.9,445,882.69,500,846.69,500c-18.8,0-27.53-15.62-27.53-36.27,0-3.44.26-7.15.52-10.86-14,27-30.7,47.39-48.44,47.39-20.12-.53-29.39-13.5-29.39-35.21,0-16.94,20.39-87.89,38.39-136.87-5.3,1.06-10.59,1.86-16.15,2.65-33.36,5.29-78.63,11.65-78.63,43.42,0,14,9.27,23.82,20.92,23.82a5.22,5.22,0,0,1,5.56,5.3,5.7,5.7,0,0,1-5.83,5.82c-18.53,0-32.3-15.62-31.77-35.47,0-39.71,49.77-47.92,87.9-53.74,7.94-1.33,15.62-2.12,22.5-3.45C790.56,301.2,802,284,815.45,284Zm3.71,14.3a3.62,3.62,0,0,0-3.71-3.71c-5.83,0-12.71,9-16.94,18C809.62,310.2,819.16,302.52,819.16,298.29Z" transform="translate(-26.28 -65.42)"/><path class="cls-1" d="M1047.89,432a7.85,7.85,0,0,1-.53,2.38l-.27.8C1037,457.39,1022.74,490,998.91,490c-12.71,0-19.06-9.27-19.06-22.24C969.26,482.54,958.14,490,946.76,490c-14.83,0-21.71-12.71-21.71-28.59,0-34.68,26.74-96.63,58.51-96.63,11.11,0,19.32,4.5,24.09,14,1.59-4.5,3.17-8.47,4.5-11.92a5.53,5.53,0,0,1,5.29-3.44,5.38,5.38,0,0,1,5,7.42l-13.23,35.47C999.71,433,991,456.07,991,467.72c0,7.94,2.38,11.12,7.94,11.12,16.42,0,29.12-28.59,37.86-48.18l.26-.8a5.72,5.72,0,0,1,5-3.44,7.92,7.92,0,0,1,2.39.53A5.72,5.72,0,0,1,1047.89,432Zm-53.74-19.86,6.35-16.94c-.53-12.18-7.41-19.33-16.94-19.33-24.36.53-46.86,57.45-47.39,83.66,0,11.65,2.38,19.33,10.32,19.33C967.94,478.84,983.56,439.13,994.15,412.12Z" transform="translate(-26.28 -65.42)"/><path class="cls-1" d="M1096.6,432a7.85,7.85,0,0,1-.53,2.38C1083.36,463,1069.6,490,1047.36,490c-12.71,0-19.59-10.06-19.06-22.24.79-20.65,19.59-69.1,31.24-99.28a5.31,5.31,0,0,1,5-3.7c3.44,0,6.88,2.64,5.29,7.14-25.68,72.28-30.44,84.46-30.44,95.84,0,7.68,2.38,11.12,7.94,11.12,16.41,0,28.59-27.27,38.39-49a6.06,6.06,0,0,1,5.29-3.44,6.41,6.41,0,0,1,2.12.53A5.42,5.42,0,0,1,1096.6,432Zm-30.18-89.75a9.15,9.15,0,0,1,9.26-9,9,9,0,1,1,0,18A9.15,9.15,0,0,1,1066.42,342.23Z" transform="translate(-26.28 -65.42)"/><path class="cls-1" d="M1151.66,432a7.57,7.57,0,0,1-.53,2.38c-15.35,33.1-30.18,55.6-54.53,55.6-12.71,0-19.59-9.53-19.59-22.24,0-9.8,6.61-32.83,15.09-54.54l13.5-37.85h-16.68a5.43,5.43,0,0,1-5.56-5.56,5.59,5.59,0,0,1,5.56-5.56h20.38c.53-1.06,13.51-38.39,13.77-39.45a5.4,5.4,0,0,1,5.3-3.71,5.57,5.57,0,0,1,5.29,7.42c.79-1.59-10.59,30.71-12.44,35.74H1139a5.59,5.59,0,0,1,5.56,5.56,5.43,5.43,0,0,1-5.56,5.56h-21.7c-1.59,5-6.09,17.2-14.83,41.82-10.85,30.71-14.3,42.89-14.3,50.57,0,7.15,3.18,11.12,8.48,11.12,19.06,0,31.77-22,44.21-49.24a6.33,6.33,0,0,1,5.29-3.18,7.92,7.92,0,0,1,2.39.53A5.93,5.93,0,0,1,1151.66,432Z" transform="translate(-26.28 -65.42)"/><path class="cls-1" d="M1235.58,432.25a6.07,6.07,0,0,1-.53,2.11c-17.21,38.13-37.33,55.6-64.06,55.6-22,0-35.21-14.56-34.69-36.27,1.59-33.89,29.13-88.95,60.37-88.95,13.23,0,22.5,6.88,22.5,19.59,0,28.06-39.45,45-68.83,52.15a77.34,77.34,0,0,0-2.92,17.47c-.53,15.09,7.95,24.36,23.83,24.89,21.71.53,38.65-14.83,53.48-49a6,6,0,0,1,7.41-2.91A6.09,6.09,0,0,1,1235.58,432.25Zm-27.53-47.92c0-7.15-5.56-8.48-11.38-8.48-18.27,0-33.63,27.54-42.1,47.92C1176.54,416.89,1208.05,403.92,1208.05,384.33Z" transform="translate(-26.28 -65.42)"/><path class="cls-1" d="M1333,432a7.57,7.57,0,0,1-.53,2.38C1315.27,473.81,1302,490,1284,490h-.27c-12.44,0-18.8-9.27-18.8-22.24a62.12,62.12,0,0,1,2.65-17.21c2.12-8.47,13.77-43.68,16.15-49.5-20.12-6.62-23-7.68-28.86-10.59-1.05,3.17-2.91,6.88-24.09,53.21a5.35,5.35,0,0,1-4.76,3.18,7.94,7.94,0,0,1-2.65-.53,6,6,0,0,1-3.18-5,7.92,7.92,0,0,1,.53-2.39l21.18-46.06,3.18-7.94c-7.94-5.56-13.5-12.45-13.5-22.24,0-10.86,7.68-17.21,16.15-17.21,9.53,0,15.35,6.88,15.35,17.47,0,4.24-1.06,6.62-4.23,16.95,7.41,3.7,16.41,6.62,24.09,9.26,3.7,1.06,7.15,2.12,10.06,3.18s4.23,4.5,3.17,7.68c-3.44,8.73-16.15,46.59-17.73,53.21a64.12,64.12,0,0,0-2.39,14.56c0,6.62,2.12,11.12,8,11.12,13,0,23-14.83,38.12-49a5.7,5.7,0,0,1,5-3.44,7.85,7.85,0,0,1,2.38.53A5.7,5.7,0,0,1,1333,432Zm-85.24-75.45c-3.44,0-5,2.12-5,5,0,4.23,2.38,9,6.35,12.18,1.32-3.71,2.91-8.47,2.91-11.12C1252,358.12,1249.88,356.53,1247.76,356.53Z" transform="translate(-26.28 -65.42)"/><path class="cls-1" d="M216.85,603.27a21.45,21.45,0,0,1,7.05,1.11,20.41,20.41,0,0,1,5.55,2.85,14.44,14.44,0,0,1,3.65,3.83,8.08,8.08,0,0,1,1.38,4,1.27,1.27,0,0,1-.39.93,1.2,1.2,0,0,1-.87.39h-7.85a3.2,3.2,0,0,1-1.35-.24,4.48,4.48,0,0,1-1.05-.72l-.57-.6a5.5,5.5,0,0,0-1.11-.87,7.59,7.59,0,0,0-1.8-.78,9.13,9.13,0,0,0-2.64-.33,15.23,15.23,0,0,0-2.18.15,7.89,7.89,0,0,0-1.86.48,3.36,3.36,0,0,0-1.32.93,2.24,2.24,0,0,0-.51,1.5,2.09,2.09,0,0,0,.57,1.5,5.21,5.21,0,0,0,1.92,1.11,25.76,25.76,0,0,0,3.56,1q2.22.48,5.52,1.14a31,31,0,0,1,5.76,1.68,13.81,13.81,0,0,1,4.1,2.54,9.65,9.65,0,0,1,2.46,3.6,13.39,13.39,0,0,1,.81,4.89,10.75,10.75,0,0,1-1.38,5.46,12.73,12.73,0,0,1-3.86,4.1,18.83,18.83,0,0,1-5.88,2.61,28.83,28.83,0,0,1-7.41.9,24.16,24.16,0,0,1-7.43-1.08,20.32,20.32,0,0,1-5.79-2.85,14.44,14.44,0,0,1-3.81-4,8.79,8.79,0,0,1-1.43-4.5,1.23,1.23,0,0,1,.39-.93,1.17,1.17,0,0,1,.86-.39h7.86a3.37,3.37,0,0,1,1.32.21,3.77,3.77,0,0,1,1,.63q.24.24.72.78a7.5,7.5,0,0,0,1.29,1.11,8.08,8.08,0,0,0,2,1,9.36,9.36,0,0,0,3,.42,17.46,17.46,0,0,0,5.31-.69,2.57,2.57,0,0,0,2.13-2.49,1.82,1.82,0,0,0-.78-1.5,8,8,0,0,0-2.34-1.11,35.07,35.07,0,0,0-4-1c-1.62-.32-3.52-.72-5.72-1.2q-6.18-1.32-9-4.41a11.65,11.65,0,0,1-2.85-8.24,10.86,10.86,0,0,1,1.17-4.92,12.51,12.51,0,0,1,3.39-4.13,16.94,16.94,0,0,1,5.37-2.85A22.15,22.15,0,0,1,216.85,603.27Z" transform="translate(-26.28 -65.42)"/><path class="cls-1" d="M294.27,625.75l3.83-20.26a1.87,1.87,0,0,1,.72-1.26,2,2,0,0,1,1.14-.36h7.86a1.33,1.33,0,0,1,1.32,1.32,3.87,3.87,0,0,1-.06.48l-7.74,37.89a2.55,2.55,0,0,1-1,1.56,3,3,0,0,1-2,.72h-5a2.7,2.7,0,0,1-1.95-.72,4.06,4.06,0,0,1-1.05-1.56L285.87,630l-4.5,13.55a4.06,4.06,0,0,1-1.05,1.56,2.69,2.69,0,0,1-1.94.72h-5a3,3,0,0,1-2-.72,2.55,2.55,0,0,1-1-1.56l-7.73-37.89a2,2,0,0,1-.07-.48,1.35,1.35,0,0,1,1.32-1.32h7.86a2,2,0,0,1,1.14.36,1.87,1.87,0,0,1,.72,1.26l3.84,20.26L281,614.9a4.45,4.45,0,0,1,.54-1.08,1.64,1.64,0,0,1,1.5-.66h5.64a1.64,1.64,0,0,1,1.5.66,4.45,4.45,0,0,1,.54,1.08Z" transform="translate(-26.28 -65.42)"/><path class="cls-1" d="M340.61,645.84a1.64,1.64,0,0,1-1.61-1.62V605.49a1.64,1.64,0,0,1,1.61-1.62h7.86a1.64,1.64,0,0,1,1.62,1.62v38.73a1.64,1.64,0,0,1-1.62,1.62Z" transform="translate(-26.28 -65.42)"/><path class="cls-1" d="M411.49,603.87a1.64,1.64,0,0,1,1.62,1.62v6.35a1.64,1.64,0,0,1-1.62,1.62H393.56v8.22h16.73a1.64,1.64,0,0,1,1.62,1.61v6.36a1.64,1.64,0,0,1-1.62,1.62H393.56v13a1.64,1.64,0,0,1-1.62,1.62h-7.85a1.64,1.64,0,0,1-1.62-1.62V605.49a1.64,1.64,0,0,1,1.62-1.62Z" transform="translate(-26.28 -65.42)"/><path class="cls-1" d="M474.27,603.87a1.64,1.64,0,0,1,1.62,1.62v6.35a1.64,1.64,0,0,1-1.62,1.62H463.71v30.76a1.62,1.62,0,0,1-1.61,1.62h-7.86a1.64,1.64,0,0,1-1.62-1.62V613.46H442.07a1.64,1.64,0,0,1-1.62-1.62v-6.35a1.64,1.64,0,0,1,1.62-1.62Z" transform="translate(-26.28 -65.42)"/><path class="cls-1" d="M561.21,603.87a2.41,2.41,0,0,1,1.83.66,3.86,3.86,0,0,1,.87,1.32L577,643.62a2.73,2.73,0,0,1,.24.9,1.33,1.33,0,0,1-1.32,1.32h-7.55a2.36,2.36,0,0,1-1.71-.51,2.22,2.22,0,0,1-.63-1l-1.68-5h-16l-1.68,5a2.22,2.22,0,0,1-.63,1,2.36,2.36,0,0,1-1.71.51h-7.55a1.33,1.33,0,0,1-1.32-1.32,2.73,2.73,0,0,1,.24-.9l13.07-37.77a3.86,3.86,0,0,1,.87-1.32,2.41,2.41,0,0,1,1.83-.66Zm-9.71,26.2h9.71l-4.85-14.39Z" transform="translate(-26.28 -65.42)"/><path class="cls-1" d="M633.35,645.84a2.45,2.45,0,0,1-1.65-.54,4.16,4.16,0,0,1-.81-.84L617.16,624v20.26a1.64,1.64,0,0,1-1.62,1.62h-7.86a1.64,1.64,0,0,1-1.62-1.62V605.49a1.64,1.64,0,0,1,1.62-1.62h6.24a2.45,2.45,0,0,1,1.65.54,4.16,4.16,0,0,1,.81.84l13.73,20.5V605.49a1.64,1.64,0,0,1,1.62-1.62h7.85a1.64,1.64,0,0,1,1.62,1.62v38.73a1.64,1.64,0,0,1-1.62,1.62Z" transform="translate(-26.28 -65.42)"/><path class="cls-1" d="M691.09,603.87a22.1,22.1,0,0,1,7.55,1.23,18,18,0,0,1,5.91,3.44,15.84,15.84,0,0,1,3.9,5.31A18.27,18.27,0,0,1,710,620.6q.06,1.26.06,2.31v4q0,1-.06,2.22a18.52,18.52,0,0,1-1.56,6.78,15.81,15.81,0,0,1-3.81,5.27,17.28,17.28,0,0,1-5.79,3.45,21.63,21.63,0,0,1-7.49,1.23H675.2a1.64,1.64,0,0,1-1.62-1.62V605.49a1.64,1.64,0,0,1,1.62-1.62Zm7.85,16.49q-.36-6.9-8.15-6.9h-6.12v22.79h6.42q7.56,0,7.85-6.9.06-1.26.06-2.37V622.7Q699,621.62,698.94,620.36Z" transform="translate(-26.28 -65.42)"/><path class="cls-1" d="M793.2,603.27a21.45,21.45,0,0,1,7,1.11,20.2,20.2,0,0,1,5.54,2.85,14.33,14.33,0,0,1,3.66,3.83,8.08,8.08,0,0,1,1.38,4,1.27,1.27,0,0,1-.39.93,1.2,1.2,0,0,1-.87.39h-7.85a3.2,3.2,0,0,1-1.35-.24,4.48,4.48,0,0,1-1-.72l-.57-.6a5.5,5.5,0,0,0-1.11-.87,7.59,7.59,0,0,0-1.8-.78,9.13,9.13,0,0,0-2.64-.33A15.48,15.48,0,0,0,791,613a7.67,7.67,0,0,0-1.85.48,3.29,3.29,0,0,0-1.32.93,2.24,2.24,0,0,0-.51,1.5,2.09,2.09,0,0,0,.57,1.5,5.24,5.24,0,0,0,1.91,1.11,26,26,0,0,0,3.57,1q2.22.48,5.52,1.14a31,31,0,0,1,5.76,1.68,13.93,13.93,0,0,1,4.1,2.54,9.65,9.65,0,0,1,2.46,3.6,13.39,13.39,0,0,1,.81,4.89,10.75,10.75,0,0,1-1.38,5.46,12.66,12.66,0,0,1-3.87,4.1,18.77,18.77,0,0,1-5.87,2.61,28.83,28.83,0,0,1-7.41.9,24.16,24.16,0,0,1-7.43-1.08,20.32,20.32,0,0,1-5.79-2.85,14.44,14.44,0,0,1-3.81-4A8.9,8.9,0,0,1,775,634a1.27,1.27,0,0,1,.39-.93,1.2,1.2,0,0,1,.87-.39h7.86a3.37,3.37,0,0,1,1.32.21,3.77,3.77,0,0,1,1,.63q.24.24.72.78a7.5,7.5,0,0,0,1.29,1.11,7.84,7.84,0,0,0,2,1,9.46,9.46,0,0,0,3,.42,17.46,17.46,0,0,0,5.31-.69,2.57,2.57,0,0,0,2.13-2.49,1.82,1.82,0,0,0-.78-1.5,8,8,0,0,0-2.34-1.11,35.07,35.07,0,0,0-4-1q-2.43-.48-5.72-1.2-6.18-1.32-9-4.41a11.65,11.65,0,0,1-2.85-8.24,10.86,10.86,0,0,1,1.17-4.92,12.51,12.51,0,0,1,3.39-4.13,16.94,16.94,0,0,1,5.37-2.85A22.15,22.15,0,0,1,793.2,603.27Z" transform="translate(-26.28 -65.42)"/><path class="cls-1" d="M872.05,636.25a1.64,1.64,0,0,1,1.62,1.62v6.35a1.64,1.64,0,0,1-1.62,1.62H843.63a1.64,1.64,0,0,1-1.62-1.62V605.49a1.64,1.64,0,0,1,1.62-1.62h27.94a1.64,1.64,0,0,1,1.62,1.62v6.35a1.64,1.64,0,0,1-1.62,1.62H853.1v6.48h17.15a1.64,1.64,0,0,1,1.62,1.62v6.35a1.64,1.64,0,0,1-1.62,1.62H853.1v6.72Z" transform="translate(-26.28 -65.42)"/><path class="cls-1" d="M913.79,619.82c0,.52-.08,1.24-.1,2.16s0,1.86,0,2.84,0,1.94,0,2.88,0,1.67.1,2.19a10.94,10.94,0,0,0,.53,2.64,6,6,0,0,0,1.32,2.22,6.44,6.44,0,0,0,2.28,1.53,9,9,0,0,0,3.42.57,10,10,0,0,0,3.36-.48,7.32,7.32,0,0,0,2.16-1.17,5.12,5.12,0,0,0,1.29-1.53,10,10,0,0,0,.68-1.56,3.64,3.64,0,0,1,.67-1.35,1.82,1.82,0,0,1,1.37-.39h7.86a1.33,1.33,0,0,1,1.32,1.32,12.6,12.6,0,0,1-1.5,5.76,14.7,14.7,0,0,1-4,4.67,20.14,20.14,0,0,1-5.9,3.15,22.39,22.39,0,0,1-7.35,1.17,21.57,21.57,0,0,1-7.71-1.29,17.73,17.73,0,0,1-5.78-3.51,15.17,15.17,0,0,1-3.69-5.18,18.08,18.08,0,0,1-1.47-6.27q-.12-2.46-.12-5.28c0-1.87,0-3.67.12-5.39a16.8,16.8,0,0,1,1.44-6.27,15.73,15.73,0,0,1,3.69-5.18,17.32,17.32,0,0,1,5.78-3.51,21.81,21.81,0,0,1,7.74-1.29,22.39,22.39,0,0,1,7.35,1.17,20.36,20.36,0,0,1,5.9,3.14,14.73,14.73,0,0,1,4,4.68,12.6,12.6,0,0,1,1.5,5.76,1.33,1.33,0,0,1-1.32,1.32h-7.86a1.82,1.82,0,0,1-1.37-.39,3.64,3.64,0,0,1-.67-1.35,10,10,0,0,0-.68-1.56,5.12,5.12,0,0,0-1.29-1.53,7.32,7.32,0,0,0-2.16-1.17,10,10,0,0,0-3.36-.48,9,9,0,0,0-3.42.57,6.44,6.44,0,0,0-2.28,1.53,6,6,0,0,0-1.32,2.22A10.94,10.94,0,0,0,913.79,619.82Z" transform="translate(-26.28 -65.42)"/><path class="cls-1" d="M1004.63,603.87a1.64,1.64,0,0,1,1.62,1.62v23.92a19,19,0,0,1-1.32,7.32,14.39,14.39,0,0,1-3.75,5.33,16.28,16.28,0,0,1-5.79,3.27,23.35,23.35,0,0,1-7.37,1.11,23.62,23.62,0,0,1-7.44-1.11,15.85,15.85,0,0,1-5.75-3.27,14.56,14.56,0,0,1-3.72-5.33,19,19,0,0,1-1.32-7.32V605.49a1.64,1.64,0,0,1,1.62-1.62h7.85a1.64,1.64,0,0,1,1.62,1.62v23.68a8.32,8.32,0,0,0,1.77,5.64,8.07,8.07,0,0,0,10.73,0,8.32,8.32,0,0,0,1.77-5.64V605.49a1.64,1.64,0,0,1,1.62-1.62Z" transform="translate(-26.28 -65.42)"/><path class="cls-1" d="M1056.07,603.87a27.28,27.28,0,0,1,7.08.84,15,15,0,0,1,5.31,2.52,10.92,10.92,0,0,1,3.35,4.28,14.77,14.77,0,0,1,1.17,6.09,13.8,13.8,0,0,1-1.86,7.46,11.83,11.83,0,0,1-5.27,4.53l7.43,14.27a1.49,1.49,0,0,1,.18.66,1.33,1.33,0,0,1-1.32,1.32H1064a2.28,2.28,0,0,1-1.71-.54,5.43,5.43,0,0,1-.81-1.08l-6.66-12.83h-5.51v12.83a1.64,1.64,0,0,1-1.62,1.62h-7.86a1.62,1.62,0,0,1-1.61-1.62V605.49a1.62,1.62,0,0,1,1.61-1.62ZM1049.3,622h6.77a8.2,8.2,0,0,0,4.17-1,4.49,4.49,0,0,0,0-7,8.2,8.2,0,0,0-4.17-1h-6.77Z" transform="translate(-26.28 -65.42)"/><path class="cls-1" d="M1133.9,636.25a1.64,1.64,0,0,1,1.62,1.62v6.35a1.64,1.64,0,0,1-1.62,1.62h-28.42a1.64,1.64,0,0,1-1.62-1.62V605.49a1.64,1.64,0,0,1,1.62-1.62h27.94a1.64,1.64,0,0,1,1.62,1.62v6.35a1.64,1.64,0,0,1-1.62,1.62H1115v6.48h17.14a1.64,1.64,0,0,1,1.62,1.62v6.35a1.64,1.64,0,0,1-1.62,1.62H1115v6.72Z" transform="translate(-26.28 -65.42)"/></svg>