<svg id="Capa_1" data-name="Capa 1" xmlns="http://www.w3.org/2000/svg" viewBox="0 0 1306.72 595.41"><defs><style>.cls-1,.cls-2,.cls-3{fill:#fff;}.cls-2{font-size:264.74px;font-family:Nickainley-Normal, Nickainley;}.cls-3{font-size:59.96px;font-family:Rubik-Bold, Rubik;font-weight:700;letter-spacing:0.39em;}.cls-4{letter-spacing:0.4em;}.cls-5{letter-spacing:0.38em;}.cls-6{letter-spacing:0.38em;}.cls-7{letter-spacing:0.4em;}.cls-8{letter-spacing:0.39em;}.cls-9{letter-spacing:0.4em;}</style></defs><title>logo</title><path class="cls-1" d="M660.62,189.15a26.17,26.17,0,0,1,25.83,14.15c6,11.88,18.92,19.83,42.67,19.83H806.8a5.54,5.54,0,0,0,5.53-5.54h0a5.84,5.84,0,0,0-5.86-5.84h-72a5.88,5.88,0,1,1,0-11.75h72a5.85,5.85,0,0,0,5.86-5.85v-.06a5.85,5.85,0,0,0-5.86-5.85h-72a5.88,5.88,0,1,1,0-11.75h72a5.84,5.84,0,0,0,5.86-5.84v-.07a5.85,5.85,0,0,0-5.86-5.84h-72a5.88,5.88,0,1,1,0-11.75h72a5.85,5.85,0,0,0,5.86-5.84,5.55,5.55,0,0,0-5.53-5.55H729.12c-23.75,0-36.64,8-42.67,19.84a26.13,26.13,0,0,1-25.83,14.14m151.71,42" transform="translate(-26.28 -65.42)"/><rect class="cls-1" x="633.7" y="165.26" width="30.11" height="34.21" rx="1.55" ry="1.55" transform="translate(804.84 -531.81) rotate(90)"/><path class="cls-1" d="M552.24,197.48a432.52,432.52,0,0,1,90.35-5.92V173.17a433.2,433.2,0,0,1-90.35-5.91c-16.58-2.88-33.09-6.76-50.22-6.79s-35.58,4.73-43.48,15c0,0-4.69,9.24,0,13.83,9.69,9.53,26.36,15,43.48,15S535.66,200.35,552.24,197.48Zm-67-15.11c0-4.54,10.42-8.22,23.27-8.22s23.26,3.68,23.26,8.22-10.41,8.21-23.26,8.21S485.21,186.9,485.21,182.37Z" transform="translate(-26.28 -65.42)"/><path class="cls-1" d="M623.15,77.48a4,4,0,0,0-4-4H463.7a7,7,0,0,0-7,7,7.55,7.55,0,0,0,5.47,7.25L547,112.1a86.51,86.51,0,0,0,72.85-11.88,7.65,7.65,0,0,0,3.29-6.28m0-16.46" transform="translate(-26.28 -65.42)"/><rect class="cls-1" x="615.87" y="70.21" width="30.11" height="34.21" rx="1.55" ry="1.55" transform="translate(517.32 652.82) rotate(-90)"/><path class="cls-1" d="M716.32,72.21A433.2,433.2,0,0,1,626,78.13V96.51a433.2,433.2,0,0,1,90.35,5.92c16.58,2.87,33.09,6.75,50.22,6.79s35.58-4.73,43.49-15c0,0,4.68-9.24,0-13.84-9.7-9.52-26.37-15-43.49-15S732.9,69.33,716.32,72.21Zm67,15.11c0,4.53-10.42,8.21-23.27,8.21s-23.26-3.68-23.26-8.21,10.41-8.21,23.26-8.21S783.35,82.78,783.35,87.32Z" transform="translate(-26.28 -65.42)"/><text class="cls-2" transform="translate(0 424.54)">Smart Waiter</text><text class="cls-3" transform="translate(170.79 580.42)">S<tspan class="cls-4" x="63.86" y="0">WIF</tspan><tspan class="cls-5" x="242.18" y="0">T</tspan><tspan class="cls-6" x="302.57" y="0"> </tspan><tspan class="cls-7" x="337.76" y="0">AND S</tspan><tspan class="cls-8" x="640.75" y="0">E</tspan><tspan class="cls-9" x="702.87" y="0">CURE</tspan></text></svg>