<?xml version="1.0" encoding="iso-8859-1"?>
<!-- Generator: Adobe Illustrator 19.0.0, SVG Export Plug-In . SVG Version: 6.00 Build 0)  -->
<svg version="1.1" id="Capa_1" xmlns="http://www.w3.org/2000/svg" xmlns:xlink="http://www.w3.org/1999/xlink" x="0px" y="0px"
	 viewBox="0 0 432 432" style="enable-background:new 0 0 432 432;" xml:space="preserve">
<g>
	<g>
		<path d="M413.928,321.203c-2.869-7.385-8.619-13.285-15.928-16.344c-7.164-3.026-15.25-3.008-22.4,0.048l-51.872,22.024
			c0.143-0.976,0.234-1.959,0.272-2.944c0-15.464-12.536-28-28-28h-62.056c-6.278-0.009-12.469-1.472-18.088-4.272
			c-25.961-12.942-54.568-19.694-83.576-19.728H112c0-4.418-3.582-8-8-8H40c-4.418,0-8,3.582-8,8H0v16h32v80H0v16h32
			c0,4.418,3.582,8,8,8h64c4.418,0,8-3.582,8-8v-3.048l59.728,24.8c32.56,13.298,68.961,13.702,101.808,1.128l123.584-47.128
			c7.321-2.782,13.213-8.397,16.344-15.576C416.697,336.883,416.864,328.608,413.928,321.203z M96,375.987H48v-96h48V375.987z
			 M398.792,337.715c-1.413,3.266-4.084,5.825-7.408,7.096L267.8,391.931c-29.039,11.124-61.223,10.778-90.016-0.968L112,363.611
			v-75.624h20.28c26.526,0.031,52.684,6.206,76.424,18.04c7.839,3.913,16.479,5.953,25.24,5.96H296
			c6.627,0.043,11.965,5.45,11.922,12.077c-0.036,5.551-3.875,10.354-9.282,11.611c-1.048,0.096-2.072,0.312-3.136,0.312H200v16
			h95.504c0.168,0,0.328,0,0.496,0c0.16,0,0.312-0.048,0.48-0.048c6.349-0.102,12.619-1.431,18.464-3.912l66.888-28.392
			c3.186-1.36,6.79-1.36,9.976,0c3.314,1.399,5.914,4.088,7.2,7.448C400.367,330.512,400.289,334.344,398.792,337.715z"/>
	</g>
</g>
<g>
	<g>
		<path d="M408,199.987h-0.408c-3.873-75.842-60.525-138.514-135.592-150v-10c0-13.255-10.745-24-24-24s-24,10.745-24,24v10
			c-75.067,11.486-131.719,74.158-135.592,150H88c-13.255,0-24,10.745-24,24s10.745,24,24,24h320c13.255,0,24-10.745,24-24
			S421.255,199.987,408,199.987z M240,39.987c0-4.418,3.582-8,8-8s8,3.582,8,8v8h-16V39.987z M248,63.987
			c76.387,0.089,139.448,59.736,143.784,136H104.216C108.552,123.723,171.613,64.076,248,63.987z M408,231.987H88
			c-4.418,0-8-3.582-8-8s3.582-8,8-8h320c4.418,0,8,3.582,8,8S412.418,231.987,408,231.987z"/>
	</g>
</g>
<g>
	<g>
		<path d="M222.4,82.547c-5.791,1.176-11.493,2.756-17.064,4.728l5.328,15.08c4.877-1.72,9.868-3.1,14.936-4.128L222.4,82.547z"/>
	</g>
</g>
<g>
	<g>
		<path d="M188.256,94.755c-22.815,12.029-41.458,30.677-53.48,53.496l14.136,7.472c10.525-19.976,26.852-36.297,46.832-46.816
			L188.256,94.755z"/>
	</g>
</g>
<g>
</g>
<g>
</g>
<g>
</g>
<g>
</g>
<g>
</g>
<g>
</g>
<g>
</g>
<g>
</g>
<g>
</g>
<g>
</g>
<g>
</g>
<g>
</g>
<g>
</g>
<g>
</g>
<g>
</g>
</svg>
